<mxfile host="app.diagrams.net" modified="2024-05-23T08:04:30.832Z" agent="Mozilla/5.0 (Macintosh; Intel Mac OS X 10_15_7) AppleWebKit/605.1.15 (KHTML, like Gecko) Version/17.4.1 Safari/605.1.15" etag="HvAhxx-SaB-ljxQdBFI1" version="24.4.4" type="device">
  <diagram name="Страница — 1" id="SqqJJPES2S_pBhm7P6sC">
    <mxGraphModel dx="728" dy="1896" grid="1" gridSize="10" guides="1" tooltips="1" connect="0" arrows="1" fold="1" page="1" pageScale="1" pageWidth="827" pageHeight="1169" math="0" shadow="0">
      <root>
        <mxCell id="0" />
        <mxCell id="1" parent="0" />
        <mxCell id="50l_6FRXW9_p3EHttSO7-8" value="Есть в наличии необходимые&lt;div&gt;комплектующие?&lt;/div&gt;" style="rhombus;whiteSpace=wrap;html=1;" parent="1" vertex="1">
          <mxGeometry x="593" y="290" width="180" height="80" as="geometry" />
        </mxCell>
        <mxCell id="50l_6FRXW9_p3EHttSO7-12" value="Изменить статус заявки на &quot;Ожидание комплектующих&quot;" style="rounded=0;whiteSpace=wrap;html=1;" parent="1" vertex="1">
          <mxGeometry x="390" y="455" width="120" height="60" as="geometry" />
        </mxCell>
        <mxCell id="50l_6FRXW9_p3EHttSO7-13" value="поступления новых комплектующих" style="rounded=0;whiteSpace=wrap;html=1;" parent="1" vertex="1">
          <mxGeometry x="390" y="550" width="120" height="60" as="geometry" />
        </mxCell>
        <mxCell id="50l_6FRXW9_p3EHttSO7-15" value="Изменить статус заявки на &quot;В процессе ремонта&quot;" style="rounded=0;whiteSpace=wrap;html=1;" parent="1" vertex="1">
          <mxGeometry x="820" y="410" width="120" height="60" as="geometry" />
        </mxCell>
        <mxCell id="50l_6FRXW9_p3EHttSO7-19" value="процесс ремонта" style="rounded=0;whiteSpace=wrap;html=1;" parent="1" vertex="1">
          <mxGeometry x="820" y="505" width="120" height="60" as="geometry" />
        </mxCell>
        <mxCell id="50l_6FRXW9_p3EHttSO7-20" value="Изменить статуса заявки на &quot;Готов к выдаче&quot;" style="rounded=0;whiteSpace=wrap;html=1;" parent="1" vertex="1">
          <mxGeometry x="820" y="590" width="120" height="60" as="geometry" />
        </mxCell>
        <mxCell id="50l_6FRXW9_p3EHttSO7-21" value="выдача клиенту" style="rounded=0;whiteSpace=wrap;html=1;" parent="1" vertex="1">
          <mxGeometry x="820" y="680" width="120" height="60" as="geometry" />
        </mxCell>
        <mxCell id="50l_6FRXW9_p3EHttSO7-22" value="конец" style="ellipse;whiteSpace=wrap;html=1;" parent="1" vertex="1">
          <mxGeometry x="830" y="770" width="100" height="40" as="geometry" />
        </mxCell>
        <mxCell id="50l_6FRXW9_p3EHttSO7-23" value="" style="endArrow=classic;html=1;rounded=0;exitX=0;exitY=0.5;exitDx=0;exitDy=0;entryX=0.5;entryY=0;entryDx=0;entryDy=0;" parent="1" source="50l_6FRXW9_p3EHttSO7-8" target="50l_6FRXW9_p3EHttSO7-12" edge="1">
          <mxGeometry width="50" height="50" relative="1" as="geometry">
            <mxPoint x="710" y="460" as="sourcePoint" />
            <mxPoint x="450" y="370" as="targetPoint" />
            <Array as="points">
              <mxPoint x="450" y="330" />
            </Array>
          </mxGeometry>
        </mxCell>
        <mxCell id="50l_6FRXW9_p3EHttSO7-26" value="" style="endArrow=classic;html=1;rounded=0;exitX=0.5;exitY=1;exitDx=0;exitDy=0;entryX=0.5;entryY=0;entryDx=0;entryDy=0;" parent="1" source="50l_6FRXW9_p3EHttSO7-12" target="50l_6FRXW9_p3EHttSO7-13" edge="1">
          <mxGeometry width="50" height="50" relative="1" as="geometry">
            <mxPoint x="460" y="525" as="sourcePoint" />
            <mxPoint x="500" y="610" as="targetPoint" />
          </mxGeometry>
        </mxCell>
        <mxCell id="50l_6FRXW9_p3EHttSO7-29" value="" style="endArrow=classic;html=1;rounded=0;exitX=0.5;exitY=1;exitDx=0;exitDy=0;" parent="1" source="50l_6FRXW9_p3EHttSO7-13" edge="1">
          <mxGeometry width="50" height="50" relative="1" as="geometry">
            <mxPoint x="510" y="760" as="sourcePoint" />
            <mxPoint x="880" y="380" as="targetPoint" />
            <Array as="points">
              <mxPoint x="450" y="620" />
              <mxPoint x="520" y="620" />
              <mxPoint x="600" y="620" />
              <mxPoint x="600" y="380" />
            </Array>
          </mxGeometry>
        </mxCell>
        <mxCell id="50l_6FRXW9_p3EHttSO7-30" value="" style="endArrow=classic;html=1;rounded=0;exitX=1;exitY=0.5;exitDx=0;exitDy=0;entryX=0.5;entryY=0;entryDx=0;entryDy=0;" parent="1" source="50l_6FRXW9_p3EHttSO7-8" target="50l_6FRXW9_p3EHttSO7-15" edge="1">
          <mxGeometry width="50" height="50" relative="1" as="geometry">
            <mxPoint x="740" y="590" as="sourcePoint" />
            <mxPoint x="790" y="540" as="targetPoint" />
            <Array as="points">
              <mxPoint x="880" y="330" />
            </Array>
          </mxGeometry>
        </mxCell>
        <mxCell id="50l_6FRXW9_p3EHttSO7-36" value="" style="endArrow=classic;html=1;rounded=0;exitX=0.5;exitY=1;exitDx=0;exitDy=0;entryX=0.5;entryY=0;entryDx=0;entryDy=0;" parent="1" source="50l_6FRXW9_p3EHttSO7-19" target="50l_6FRXW9_p3EHttSO7-20" edge="1">
          <mxGeometry width="50" height="50" relative="1" as="geometry">
            <mxPoint x="600" y="390" as="sourcePoint" />
            <mxPoint x="650" y="340" as="targetPoint" />
          </mxGeometry>
        </mxCell>
        <mxCell id="50l_6FRXW9_p3EHttSO7-37" value="" style="endArrow=classic;html=1;rounded=0;exitX=0.5;exitY=1;exitDx=0;exitDy=0;entryX=0.5;entryY=0;entryDx=0;entryDy=0;" parent="1" source="50l_6FRXW9_p3EHttSO7-20" target="50l_6FRXW9_p3EHttSO7-21" edge="1">
          <mxGeometry width="50" height="50" relative="1" as="geometry">
            <mxPoint x="600" y="390" as="sourcePoint" />
            <mxPoint x="650" y="340" as="targetPoint" />
          </mxGeometry>
        </mxCell>
        <mxCell id="50l_6FRXW9_p3EHttSO7-38" value="" style="endArrow=classic;html=1;rounded=0;exitX=0.5;exitY=1;exitDx=0;exitDy=0;entryX=0.5;entryY=0;entryDx=0;entryDy=0;" parent="1" source="50l_6FRXW9_p3EHttSO7-21" target="50l_6FRXW9_p3EHttSO7-22" edge="1">
          <mxGeometry width="50" height="50" relative="1" as="geometry">
            <mxPoint x="600" y="690" as="sourcePoint" />
            <mxPoint x="650" y="640" as="targetPoint" />
          </mxGeometry>
        </mxCell>
        <mxCell id="50l_6FRXW9_p3EHttSO7-42" value="оформление заказа на комплектующие" style="rounded=0;whiteSpace=wrap;html=1;" parent="1" vertex="1">
          <mxGeometry x="390" y="370" width="120" height="60" as="geometry" />
        </mxCell>
        <mxCell id="QxW5wV3Jjptyc2MkwLml-21" value="определение типа неисправности" style="rounded=0;whiteSpace=wrap;html=1;" vertex="1" parent="1">
          <mxGeometry x="1181" y="280" width="120" height="60" as="geometry" />
        </mxCell>
        <mxCell id="QxW5wV3Jjptyc2MkwLml-22" value="сбор данных из БД с помощью запроса" style="rounded=0;whiteSpace=wrap;html=1;" vertex="1" parent="1">
          <mxGeometry x="1181" y="370" width="120" height="60" as="geometry" />
        </mxCell>
        <mxCell id="QxW5wV3Jjptyc2MkwLml-24" value="анализ и группировка данных по типам" style="rounded=0;whiteSpace=wrap;html=1;" vertex="1" parent="1">
          <mxGeometry x="1181" y="460" width="120" height="60" as="geometry" />
        </mxCell>
        <mxCell id="QxW5wV3Jjptyc2MkwLml-25" value="вывод результатов в виде отчета" style="rounded=0;whiteSpace=wrap;html=1;" vertex="1" parent="1">
          <mxGeometry x="1181" y="550" width="120" height="60" as="geometry" />
        </mxCell>
        <mxCell id="QxW5wV3Jjptyc2MkwLml-26" value="анализ вывода программы" style="rounded=0;whiteSpace=wrap;html=1;" vertex="1" parent="1">
          <mxGeometry x="1181" y="640" width="120" height="60" as="geometry" />
        </mxCell>
        <mxCell id="QxW5wV3Jjptyc2MkwLml-31" value="детализация &amp;nbsp;алгоритма статистики&amp;nbsp;&lt;div&gt;по типам неисправностей&lt;/div&gt;" style="text;html=1;align=center;verticalAlign=middle;resizable=0;points=[];autosize=1;strokeColor=none;fillColor=none;" vertex="1" parent="1">
          <mxGeometry x="1126" y="230" width="230" height="40" as="geometry" />
        </mxCell>
        <mxCell id="QxW5wV3Jjptyc2MkwLml-34" value="начало" style="ellipse;whiteSpace=wrap;html=1;" vertex="1" parent="1">
          <mxGeometry x="364" y="-610" width="100" height="50" as="geometry" />
        </mxCell>
        <mxCell id="QxW5wV3Jjptyc2MkwLml-35" value="ввод логина" style="shape=parallelogram;perimeter=parallelogramPerimeter;whiteSpace=wrap;html=1;fixedSize=1;" vertex="1" parent="1">
          <mxGeometry x="331.5" y="-460" width="160" height="60" as="geometry" />
        </mxCell>
        <mxCell id="QxW5wV3Jjptyc2MkwLml-36" value="ввод пароля" style="shape=parallelogram;perimeter=parallelogramPerimeter;whiteSpace=wrap;html=1;fixedSize=1;" vertex="1" parent="1">
          <mxGeometry x="511.5" y="-330" width="153" height="60" as="geometry" />
        </mxCell>
        <mxCell id="QxW5wV3Jjptyc2MkwLml-37" value="логин введен верно?" style="rhombus;whiteSpace=wrap;html=1;" vertex="1" parent="1">
          <mxGeometry x="330" y="-380" width="163" height="80" as="geometry" />
        </mxCell>
        <mxCell id="QxW5wV3Jjptyc2MkwLml-38" value="пароль введен верно?" style="rhombus;whiteSpace=wrap;html=1;" vertex="1" parent="1">
          <mxGeometry x="513" y="-250" width="150" height="80" as="geometry" />
        </mxCell>
        <mxCell id="QxW5wV3Jjptyc2MkwLml-39" value="открытие окна регистрации заявки" style="rounded=0;whiteSpace=wrap;html=1;" vertex="1" parent="1">
          <mxGeometry x="685.5" y="-190" width="120" height="60" as="geometry" />
        </mxCell>
        <mxCell id="QxW5wV3Jjptyc2MkwLml-40" value="открытие окна авторизации" style="rounded=0;whiteSpace=wrap;html=1;" vertex="1" parent="1">
          <mxGeometry x="354.5" y="-540" width="120" height="60" as="geometry" />
        </mxCell>
        <mxCell id="QxW5wV3Jjptyc2MkwLml-41" value="ввод данных для создания заявки" style="shape=parallelogram;perimeter=parallelogramPerimeter;whiteSpace=wrap;html=1;fixedSize=1;" vertex="1" parent="1">
          <mxGeometry x="685.5" y="-110" width="120" height="60" as="geometry" />
        </mxCell>
        <mxCell id="QxW5wV3Jjptyc2MkwLml-42" value="назначение заявке статуса &quot;новая заявка&quot;" style="rounded=0;whiteSpace=wrap;html=1;" vertex="1" parent="1">
          <mxGeometry x="685.5" y="-30" width="120" height="60" as="geometry" />
        </mxCell>
        <mxCell id="QxW5wV3Jjptyc2MkwLml-43" value="отслеживание статуса заявки" style="rounded=0;whiteSpace=wrap;html=1;" vertex="1" parent="1">
          <mxGeometry x="685.5" y="50" width="120" height="60" as="geometry" />
        </mxCell>
        <mxCell id="QxW5wV3Jjptyc2MkwLml-44" value="назначение ответственного&lt;div&gt;специалиста&lt;/div&gt;" style="rounded=0;whiteSpace=wrap;html=1;" vertex="1" parent="1">
          <mxGeometry x="414" y="100" width="180" height="60" as="geometry" />
        </mxCell>
        <mxCell id="QxW5wV3Jjptyc2MkwLml-45" value="справится один специалист?" style="rhombus;whiteSpace=wrap;html=1;" vertex="1" parent="1">
          <mxGeometry x="423.5" y="200" width="150" height="80" as="geometry" />
        </mxCell>
        <mxCell id="QxW5wV3Jjptyc2MkwLml-46" value="назначение нового/еще одного" style="rounded=0;whiteSpace=wrap;html=1;" vertex="1" parent="1">
          <mxGeometry x="280" y="210" width="120" height="60" as="geometry" />
        </mxCell>
        <mxCell id="QxW5wV3Jjptyc2MkwLml-47" value="начало работы специалистов" style="rounded=0;whiteSpace=wrap;html=1;" vertex="1" parent="1">
          <mxGeometry x="627.5" y="210" width="120" height="60" as="geometry" />
        </mxCell>
      </root>
    </mxGraphModel>
  </diagram>
</mxfile>
